<?xml version="1.0" encoding="UTF-8"?>
<svg xmlns="http://www.w3.org/2000/svg" xmlns:xlink="http://www.w3.org/1999/xlink" width="16px" height="16px" viewBox="0 0 16 16" version="1.1">
    <g id="Updates" stroke="none" stroke-width="1" fill="none" fill-rule="evenodd">
        <g id="Likes-2" transform="translate(-310.000000, -182.000000)" fill="#FFFFFF">
            <g id="Group-9" transform="translate(278.000000, 150.000000)">
                <g id="Group-7" transform="translate(20.000000, 20.000000)">
                    <g id="i-plus" transform="translate(12.000000, 12.000000)">
                        <path d="M9.664,16 C9.75415493,16.0005597 9.8407071,15.9646489 9.90398494,15.9004294 C9.96726277,15.83621 10.0018912,15.7491368 10,15.659 L10,10 L15.664,10 C15.7541549,10.0005597 15.8407071,9.96464891 15.9039849,9.90042944 C15.9672628,9.83620997 16.0018912,9.74913683 16,9.659 L16,6.331 C15.9994721,6.24250783 15.9637426,6.15786513 15.9007008,6.09576142 C15.837659,6.03365771 15.7524901,5.99920118 15.664,6 L10,6 L10,0.336 C10.0008087,0.246641791 9.96566858,0.160708188 9.9024802,0.0975198049 C9.83929181,0.0343314214 9.75335821,-0.000808721406 9.664,-5.45119217e-14 L6.336,-5.45119217e-14 C6.24664179,-0.000808721406 6.16070819,0.0343314214 6.0975198,0.0975198049 C6.03433142,0.160708188 5.99919128,0.246641791 6,0.336 L6,6 L0.336,6 C0.246641791,5.99919128 0.160708188,6.03433142 0.0975198049,6.0975198 C0.0343314214,6.16070819 -0.000808721406,6.24664179 5.20416958e-14,6.336 L5.20416958e-14,9.664 C-0.000536206976,9.75327604 0.034691478,9.83905086 0.0978203109,9.90217969 C0.160949144,9.96530852 0.246723959,10.0005362 0.336,10 L6,10 L6,15.664 C5.99946379,15.753276 6.03469148,15.8390509 6.09782031,15.9021797 C6.16094914,15.9653085 6.24672396,16.0005362 6.336,16 L9.664,16 L9.664,16 Z" id="plus"></path>
                    </g>
                </g>
            </g>
        </g>
    </g>
</svg>
