<?xml version="1.0" encoding="UTF-8"?>
<svg xmlns="http://www.w3.org/2000/svg" xmlns:xlink="http://www.w3.org/1999/xlink" width="16px" height="16px" viewBox="0 0 16 16" version="1.1">
    <g id="Updates" stroke="none" stroke-width="1" fill="none" fill-rule="evenodd">
        <g id="Likes-2" transform="translate(-410.000000, -182.000000)" fill="#FFFFFF">
            <g id="Group-9" transform="translate(278.000000, 150.000000)">
                <g id="Group" transform="translate(120.000000, 20.000000)">
                    <g id="i-hashtag" transform="translate(12.000000, 12.000000)">
                        <path d="M15.893,4.69 C15.8377676,5.10308978 15.4847642,5.41116545 15.068,5.41 L12.713,5.58 L12.193,9.79 L14.854,9.61 C15.042479,9.58678148 15.231597,9.64793386 15.3707985,9.7771097 C15.5099999,9.90628555 15.5850917,10.090314 15.576,10.28 L15.47,11.71 C15.4124658,12.1229872 15.062911,12.4326655 14.646,12.44 L11.846,12.63 L11.529,15.2 C11.5093295,15.6153767 11.1903672,15.9546982 10.777,16 L9.4,16 C9.21066211,15.983417 9.03762444,15.8861349 8.92506235,15.7329892 C8.81250025,15.5798435 8.77130738,15.3856554 8.812,15.2 L9.105,12.83 L5.411,13.09 L5.151,15.2 C5.13043567,15.6153652 4.81136143,15.9543551 4.398,16 L3.021,16 C2.83170504,15.9834651 2.65872047,15.886147 2.54631056,15.7329478 C2.43390064,15.5797486 2.39297285,15.3855337 2.434,15.2 L2.671,13.28 L0.727,13.42 C0.537639921,13.4393163 0.349226315,13.3754326 0.210663816,13.2449305 C0.0721013166,13.1144284 -0.00294641869,12.9301768 0.005,12.74 L0.111,11.31 C0.166646346,10.8971328 0.519400288,10.5892748 0.936,10.59 L3.022,10.44 L3.542,6.22 L1.15,6.39 C0.961520983,6.41321852 0.772402962,6.35206614 0.633201526,6.2228903 C0.494000089,6.09371445 0.418908331,5.90968601 0.428,5.72 L0.534,4.29 C0.591534233,3.87701284 0.941088993,3.56733447 1.358,3.56 L3.893,3.38 L4.212,0.8 C4.23208242,0.384798038 4.55083261,0.0457020952 4.964,1.8189894e-12 L6.341,1.8189894e-12 C6.53033789,0.0165830195 6.70337556,0.113865116 6.81593765,0.267010824 C6.92849975,0.420156532 6.96969262,0.614344556 6.929,0.8 L6.629,3.19 L10.322,2.93 L10.585,0.8 C10.6055643,0.384634813 10.9246386,0.0456449117 11.338,9.09494702e-13 L12.715,9.09494702e-13 C12.904295,0.0165348534 13.0772795,0.113853046 13.1896894,0.267052245 C13.3020994,0.420251443 13.3430272,0.614466296 13.302,0.8 L13.063,2.74 L15.276,2.58 C15.4653601,2.56068372 15.6537737,2.62456745 15.7923362,2.75506952 C15.9308987,2.8855716 16.0059464,3.06982321 15.998,3.26 L15.893,4.69 Z M6.279,6.03 L5.758,10.25 L9.452,9.99 L9.973,5.77 L6.279,6.03 Z" id="hashtag_icon"></path>
                    </g>
                </g>
            </g>
        </g>
    </g>
</svg>
